Roman_opsz12_wght700.ufo
<glyph name="exclam" format="2">
  <advance width="342"/>
  <unicode hex="0021"/>
  <outline>
    <contour>
      <point x="171" y="217" type="curve" smooth="yes"/>
      <point x="190" y="217"/>
      <point x="191" y="220"/>
      <point x="193" y="239" type="curve" smooth="yes"/>
      <point x="241" y="613" type="line" smooth="yes"/>
      <point x="251" y="684"/>
      <point x="209.57778" y="706.0"/>
      <point x="171" y="706" type="curve" smooth="yes"/>
      <point x="132" y="706"/>
      <point x="91.0" y="683.0"/>
      <point x="101" y="613" type="curve" smooth="yes"/>
      <point x="149" y="239" type="line" smooth="yes"/>
      <point x="151" y="220"/>
      <point x="152" y="217"/>
    </contour>
    <contour>
      <point x="243" y="72" type="curve" smooth="yes"/>
      <point x="243" y="112"/>
      <point x="211" y="144"/>
      <point x="171" y="144" type="curve" smooth="yes"/>
      <point x="131" y="144"/>
      <point x="99" y="112"/>
      <point x="99" y="72" type="curve" smooth="yes"/>
      <point x="99" y="32"/>
      <point x="131" y="0"/>
      <point x="171" y="0" type="curve" smooth="yes"/>
      <point x="211" y="0"/>
      <point x="243" y="32"/>
    </contour>
  </outline>
</glyph>
<glyph name="percent" format="2">
  <advance width="937"/>
  <unicode hex="0025"/>
  <outline>
    <contour>
      <point x="769" y="699" type="line" smooth="yes"/>
      <point x="777" y="710"/>
      <point x="780" y="713"/>
      <point x="780" y="722" type="curve" smooth="yes"/>
      <point x="780" y="740"/>
      <point x="766" y="750"/>
      <point x="753" y="750" type="curve" smooth="yes"/>
      <point x="740" y="750"/>
      <point x="734" y="743"/>
      <point x="723" y="730" type="curve" smooth="yes"/>
      <point x="674" y="672"/>
      <point x="607" y="644"/>
      <point x="528" y="644" type="curve" smooth="yes"/>
      <point x="457" y="644"/>
      <point x="381" y="669"/>
      <point x="316" y="718" type="curve" smooth="yes"/>
      <point x="295" y="733"/>
      <point x="272" y="750"/>
      <point x="230" y="750" type="curve" smooth="yes"/>
      <point x="148" y="750"/>
      <point x="62" y="689"/>
      <point x="62" y="549" type="curve" smooth="yes"/>
      <point x="62" y="402"/>
      <point x="153" y="347"/>
      <point x="230" y="347" type="curve" smooth="yes"/>
      <point x="305" y="347"/>
      <point x="374" y="409"/>
      <point x="374" y="548" type="curve" smooth="yes"/>
      <point x="374" y="574"/>
      <point x="372" y="616"/>
      <point x="357" y="654" type="curve"/>
      <point x="397" y="634"/>
      <point x="457" y="612"/>
      <point x="530" y="612" type="curve" smooth="yes"/>
      <point x="572" y="612"/>
      <point x="614" y="619"/>
      <point x="650" y="635" type="curve"/>
      <point x="651" y="634" type="line"/>
      <point x="167" y="-5" type="line" smooth="yes"/>
      <point x="160" y="-14"/>
      <point x="156" y="-19"/>
      <point x="156" y="-28" type="curve" smooth="yes"/>
      <point x="156" y="-44"/>
      <point x="169" y="-56"/>
      <point x="184" y="-56" type="curve" smooth="yes"/>
      <point x="197" y="-56"/>
      <point x="203" y="-48"/>
      <point x="210" y="-39" type="curve" smooth="yes"/>
    </contour>
    <contour>
      <point x="233" y="380" type="curve" smooth="yes"/>
      <point x="160" y="380"/>
      <point x="160" y="483"/>
      <point x="160" y="548" type="curve" smooth="yes"/>
      <point x="160" y="614"/>
      <point x="160" y="717"/>
      <point x="233" y="717" type="curve" smooth="yes"/>
      <point x="274" y="717"/>
      <point x="332" y="677"/>
      <point x="332" y="549" type="curve" smooth="yes"/>
      <point x="332" y="415"/>
      <point x="271" y="380"/>
    </contour>
    <contour>
      <point x="874" y="145" type="curve" smooth="yes"/>
      <point x="874" y="290"/>
      <point x="801" y="347"/>
      <point x="730" y="347" type="curve" smooth="yes"/>
      <point x="648" y="347"/>
      <point x="562" y="286"/>
      <point x="562" y="146" type="curve" smooth="yes"/>
      <point x="562" y="-1"/>
      <point x="653" y="-56"/>
      <point x="730" y="-56" type="curve" smooth="yes"/>
      <point x="805" y="-56"/>
      <point x="874" y="6"/>
    </contour>
    <contour>
      <point x="733" y="-23" type="curve" smooth="yes"/>
      <point x="660" y="-23"/>
      <point x="660" y="80"/>
      <point x="660" y="145" type="curve" smooth="yes"/>
      <point x="660" y="211"/>
      <point x="660" y="314"/>
      <point x="733" y="314" type="curve" smooth="yes"/>
      <point x="774" y="314"/>
      <point x="832" y="274"/>
      <point x="832" y="146" type="curve" smooth="yes"/>
      <point x="832" y="12"/>
      <point x="771" y="-23"/>
    </contour>
  </outline>
</glyph>
<glyph name="parenleft" format="2">
  <advance width="437"/>
  <unicode hex="0028"/>
  <outline>
    <contour>
      <point x="357" y="-251" type="curve" smooth="yes"/>
      <point x="362" y="-251"/>
      <point x="374" y="-251"/>
      <point x="374" y="-239" type="curve" smooth="yes"/>
      <point x="374" y="-235"/>
      <point x="374" y="-233"/>
      <point x="355" y="-215" type="curve" smooth="yes"/>
      <point x="243" y="-103"/>
      <point x="200" y="73"/>
      <point x="200" y="249" type="curve" smooth="yes"/>
      <point x="200" y="446"/>
      <point x="249" y="608"/>
      <point x="361" y="721" type="curve" smooth="yes"/>
      <point x="373" y="733"/>
      <point x="374" y="734"/>
      <point x="374" y="738" type="curve" smooth="yes"/>
      <point x="374" y="750"/>
      <point x="362" y="750"/>
      <point x="357" y="750" type="curve" smooth="yes"/>
      <point x="348" y="750"/>
      <point x="346" y="750"/>
      <point x="320" y="729" type="curve" smooth="yes"/>
      <point x="176" y="614"/>
      <point x="108" y="430"/>
      <point x="108" y="250" type="curve" smooth="yes"/>
      <point x="108" y="66"/>
      <point x="177" y="-113"/>
      <point x="319" y="-229" type="curve" smooth="yes"/>
      <point x="345" y="-251"/>
      <point x="347" y="-251"/>
    </contour>
  </outline>
</glyph>
<glyph name="parenright" format="2">
  <advance width="437"/>
  <unicode hex="0029"/>
  <outline>
    <contour>
      <point x="79" y="-251" type="curve" smooth="yes"/>
      <point x="88" y="-251"/>
      <point x="90" y="-251"/>
      <point x="116" y="-230" type="curve" smooth="yes"/>
      <point x="260" y="-115"/>
      <point x="328" y="69"/>
      <point x="328" y="249" type="curve" smooth="yes"/>
      <point x="328" y="433"/>
      <point x="259" y="612"/>
      <point x="117" y="728" type="curve" smooth="yes"/>
      <point x="91" y="750"/>
      <point x="89" y="750"/>
      <point x="79" y="750" type="curve" smooth="yes"/>
      <point x="74" y="750"/>
      <point x="62" y="750"/>
      <point x="62" y="738" type="curve" smooth="yes"/>
      <point x="62" y="734"/>
      <point x="62" y="732"/>
      <point x="81" y="714" type="curve" smooth="yes"/>
      <point x="193" y="602"/>
      <point x="236" y="426"/>
      <point x="236" y="250" type="curve" smooth="yes"/>
      <point x="236" y="53"/>
      <point x="187" y="-109"/>
      <point x="75" y="-222" type="curve" smooth="yes"/>
      <point x="63" y="-234"/>
      <point x="62" y="-235"/>
      <point x="62" y="-239" type="curve" smooth="yes"/>
      <point x="62" y="-251"/>
      <point x="74" y="-251"/>
    </contour>
  </outline>
</glyph>
<glyph name="A" format="2">
  <advance width="849"/>
  <unicode hex="0041"/>
  <outline>
    <contour>
      <point x="425" y="700" type="curve" smooth="yes"/>
      <point x="400" y="700"/>
      <point x="398" y="695"/>
      <point x="391" y="677" type="curve" smooth="yes"/>
      <point x="143" y="67" type="line" smooth="yes"/>
      <point x="134" y="44"/>
      <point x="122" y="43"/>
      <point x="39" y="43" type="curve"/>
      <point x="39" y="0" type="line"/>
      <point x="65" y="2"/>
      <point x="125" y="2"/>
      <point x="154" y="2" type="curve" smooth="yes"/>
      <point x="181" y="2"/>
      <point x="254" y="2"/>
      <point x="277" y="0" type="curve"/>
      <point x="277" y="43" type="line"/>
      <point x="255" y="43"/>
      <point x="217" y="43"/>
      <point x="189" y="54" type="curve"/>
      <point x="190" y="58"/>
      <point x="192" y="64"/>
      <point x="194" y="69" type="curve" smooth="yes"/>
      <point x="247" y="199" type="line"/>
      <point x="515" y="199" type="line"/>
      <point x="578" y="43" type="line"/>
      <point x="578" y="43" type="line"/>
      <point x="484" y="43" type="line"/>
      <point x="484" y="0" type="line"/>
      <point x="516" y="2"/>
      <point x="613" y="2"/>
      <point x="651" y="2" type="curve" smooth="yes"/>
      <point x="683" y="2"/>
      <point x="785" y="2"/>
      <point x="810" y="0" type="curve"/>
      <point x="810" y="43" type="line"/>
      <point x="810" y="43" type="line"/>
      <point x="715" y="43" type="line"/>
      <point x="458" y="677" type="line" smooth="yes"/>
      <point x="451" y="695"/>
      <point x="449" y="700"/>
    </contour>
    <contour>
      <point x="381" y="530" type="line"/>
      <point x="497" y="242" type="line"/>
      <point x="264" y="242" type="line"/>
    </contour>
  </outline>
</glyph>
<glyph name="D" format="2">
  <advance width="862"/>
  <unicode hex="0044"/>
  <outline>
    <contour>
      <point x="144" y="43" type="line"/>
      <point x="38" y="43" type="line"/>
      <point x="38" y="43" type="line"/>
      <point x="38" y="0" type="line"/>
      <point x="459" y="0" type="line" smooth="yes"/>
      <point x="651" y="0"/>
      <point x="799" y="123"/>
      <point x="799" y="337" type="curve" smooth="yes"/>
      <point x="799" y="563"/>
      <point x="647" y="686"/>
      <point x="459" y="686" type="curve" smooth="yes"/>
      <point x="38" y="686" type="line"/>
      <point x="38" y="643" type="line"/>
      <point x="38" y="643" type="line"/>
      <point x="144" y="643" type="line"/>
    </contour>
    <contour>
      <point x="271" y="43" type="line"/>
      <point x="271" y="43" type="line"/>
      <point x="271" y="643" type="line"/>
      <point x="271" y="643" type="line"/>
      <point x="421" y="643" type="line" smooth="yes"/>
      <point x="508" y="643"/>
      <point x="578" y="609"/>
      <point x="615" y="557" type="curve" smooth="yes"/>
      <point x="644" y="516"/>
      <point x="663" y="467"/>
      <point x="663" y="338" type="curve" smooth="yes"/>
      <point x="663" y="221"/>
      <point x="648" y="169"/>
      <point x="613" y="122" type="curve" smooth="yes"/>
      <point x="578" y="76"/>
      <point x="511" y="43"/>
      <point x="421" y="43" type="curve" smooth="yes"/>
    </contour>
  </outline>
</glyph>
<glyph name="E" format="2">
  <advance width="738"/>
  <unicode hex="0045"/>
  <outline>
    <contour>
      <point x="144" y="43" type="line"/>
      <point x="38" y="43" type="line"/>
      <point x="38" y="43" type="line"/>
      <point x="38" y="0" type="line"/>
      <point x="663" y="0" type="line"/>
      <point x="706" y="270" type="line"/>
      <point x="664" y="270" type="line"/>
      <point x="643" y="121"/>
      <point x="606" y="43"/>
      <point x="432" y="43" type="curve" smooth="yes"/>
      <point x="276" y="43" type="line"/>
      <point x="276" y="43" type="line"/>
      <point x="276" y="332" type="line"/>
      <point x="335" y="332" type="line" smooth="yes"/>
      <point x="431" y="332"/>
      <point x="441" y="291"/>
      <point x="441" y="215" type="curve"/>
      <point x="483" y="215" type="line"/>
      <point x="483" y="492" type="line"/>
      <point x="441" y="492" type="line"/>
      <point x="441" y="417"/>
      <point x="431" y="375"/>
      <point x="335" y="375" type="curve" smooth="yes"/>
      <point x="276" y="375" type="line"/>
      <point x="276" y="638" type="line"/>
      <point x="276" y="638" type="line"/>
      <point x="432" y="638" type="line" smooth="yes"/>
      <point x="585" y="638"/>
      <point x="618" y="573"/>
      <point x="633" y="444" type="curve"/>
      <point x="675" y="444" type="line"/>
      <point x="646" y="681" type="line"/>
      <point x="38" y="681" type="line"/>
      <point x="38" y="638" type="line"/>
      <point x="38" y="638" type="line"/>
      <point x="144" y="638" type="line"/>
    </contour>
  </outline>
</glyph>
<glyph name="G" format="2">
  <advance width="884"/>
  <unicode hex="0047"/>
  <outline>
    <contour>
      <point x="62" y="343" type="curve" smooth="yes"/>
      <point x="62" y="137"/>
      <point x="211" y="-12"/>
      <point x="456" y="-12" type="curve" smooth="yes"/>
      <point x="499" y="-12"/>
      <point x="546" y="-6"/>
      <point x="586" y="12" type="curve" smooth="yes"/>
      <point x="608" y="22"/>
      <point x="628" y="37"/>
      <point x="643" y="56" type="curve"/>
      <point x="677" y="24"/>
      <point x="734" y="0"/>
      <point x="737" y="0" type="curve" smooth="yes"/>
      <point x="749" y="0"/>
      <point x="749" y="10"/>
      <point x="749" y="26" type="curve" smooth="yes"/>
      <point x="749" y="230" type="line"/>
      <point x="827" y="230" type="line"/>
      <point x="827" y="230" type="line"/>
      <point x="827" y="273" type="line"/>
      <point x="803" y="271"/>
      <point x="696" y="271"/>
      <point x="664" y="271" type="curve" smooth="yes"/>
      <point x="603" y="271"/>
      <point x="537" y="271"/>
      <point x="476" y="273" type="curve"/>
      <point x="476" y="230" type="line"/>
      <point x="617" y="230" type="line"/>
      <point x="617" y="230" type="line"/>
      <point x="617" y="128" type="line" smooth="yes"/>
      <point x="617" y="107"/>
      <point x="617" y="79"/>
      <point x="577" y="54" type="curve" smooth="yes"/>
      <point x="557" y="41"/>
      <point x="526" y="31"/>
      <point x="484" y="31" type="curve" smooth="yes"/>
      <point x="427" y="31"/>
      <point x="328" y="45"/>
      <point x="266" y="118" type="curve" smooth="yes"/>
      <point x="227" y="163"/>
      <point x="203" y="224"/>
      <point x="203" y="344" type="curve" smooth="yes"/>
      <point x="203" y="447"/>
      <point x="220" y="517"/>
      <point x="265" y="570" type="curve" smooth="yes"/>
      <point x="329" y="645"/>
      <point x="429" y="655"/>
      <point x="477" y="655" type="curve" smooth="yes"/>
      <point x="552" y="655"/>
      <point x="673" y="613"/>
      <point x="703" y="437" type="curve" smooth="yes"/>
      <point x="705" y="428"/>
      <point x="714" y="428"/>
      <point x="726" y="428" type="curve" smooth="yes"/>
      <point x="749" y="428"/>
      <point x="749" y="430"/>
      <point x="749" y="454" type="curve" smooth="yes"/>
      <point x="749" y="672" type="line" smooth="yes"/>
      <point x="749" y="695"/>
      <point x="749" y="698"/>
      <point x="727" y="698" type="curve"/>
      <point x="727" y="698" type="line"/>
      <point x="652" y="626" type="line"/>
      <point x="596" y="674"/>
      <point x="529" y="698"/>
      <point x="455" y="698" type="curve" smooth="yes"/>
      <point x="216" y="698"/>
      <point x="62" y="553"/>
    </contour>
  </outline>
</glyph>
<glyph name="L" format="2">
  <advance width="675"/>
  <unicode hex="004C"/>
  <outline>
    <contour>
      <point x="628" y="270" type="line"/>
      <point x="586" y="270" type="line"/>
      <point x="579" y="201"/>
      <point x="563" y="43"/>
      <point x="383" y="43" type="curve" smooth="yes"/>
      <point x="276" y="43" type="line"/>
      <point x="276" y="43" type="line"/>
      <point x="276" y="643" type="line"/>
      <point x="276" y="643" type="line"/>
      <point x="409" y="643" type="line"/>
      <point x="409" y="686" type="line"/>
      <point x="360" y="684"/>
      <point x="271" y="684"/>
      <point x="218" y="684" type="curve" smooth="yes"/>
      <point x="181" y="684"/>
      <point x="67" y="684"/>
      <point x="38" y="686" type="curve"/>
      <point x="38" y="643" type="line"/>
      <point x="144" y="643" type="line"/>
      <point x="144" y="643" type="line"/>
      <point x="144" y="43" type="line"/>
      <point x="144" y="43" type="line"/>
      <point x="38" y="43" type="line"/>
      <point x="38" y="0" type="line"/>
      <point x="599" y="0" type="line"/>
    </contour>
  </outline>
</glyph>
<glyph name="M" format="2">
  <advance width="1067"/>
  <unicode hex="004D"/>
  <outline>
    <contour>
      <point x="41" y="43" type="curve"/>
      <point x="41" y="0" type="line"/>
      <point x="64" y="2"/>
      <point x="142" y="2"/>
      <point x="170" y="2" type="curve" smooth="yes"/>
      <point x="198" y="2"/>
      <point x="277" y="2"/>
      <point x="300" y="0" type="curve"/>
      <point x="300" y="43" type="line"/>
      <point x="199" y="43"/>
      <point x="194" y="45"/>
      <point x="194" y="73" type="curve" smooth="yes"/>
      <point x="194" y="631" type="line"/>
      <point x="195" y="631" type="line"/>
      <point x="467" y="21" type="line" smooth="yes"/>
      <point x="472" y="10"/>
      <point x="478" y="0"/>
      <point x="495" y="0" type="curve" smooth="yes"/>
      <point x="512" y="0"/>
      <point x="518" y="10"/>
      <point x="523" y="21" type="curve" smooth="yes"/>
      <point x="800" y="643" type="line"/>
      <point x="801" y="643" type="line"/>
      <point x="801" y="43" type="line"/>
      <point x="695" y="43" type="line"/>
      <point x="695" y="43" type="line"/>
      <point x="695" y="0" type="line"/>
      <point x="722" y="2"/>
      <point x="826" y="2"/>
      <point x="860" y="2" type="curve" smooth="yes"/>
      <point x="894" y="2"/>
      <point x="998" y="2"/>
      <point x="1025" y="0" type="curve"/>
      <point x="1025" y="43" type="line"/>
      <point x="1025" y="43" type="line"/>
      <point x="919" y="43" type="line"/>
      <point x="919" y="643" type="line"/>
      <point x="919" y="643" type="line"/>
      <point x="1025" y="643" type="line"/>
      <point x="1025" y="686" type="line"/>
      <point x="812" y="686" type="line" smooth="yes"/>
      <point x="791" y="686"/>
      <point x="782" y="686"/>
      <point x="773" y="665" type="curve" smooth="yes"/>
      <point x="533" y="127" type="line"/>
      <point x="293" y="665" type="line" smooth="yes"/>
      <point x="284" y="686"/>
      <point x="275" y="686"/>
      <point x="254" y="686" type="curve" smooth="yes"/>
      <point x="41" y="686" type="line"/>
      <point x="41" y="643" type="line"/>
      <point x="41" y="643" type="line"/>
      <point x="147" y="643" type="line"/>
      <point x="147" y="73" type="line" smooth="yes"/>
      <point x="147" y="45"/>
      <point x="137" y="43"/>
    </contour>
  </outline>
</glyph>
<glyph name="N" format="2">
  <advance width="879"/>
  <unicode hex="004E"/>
  <outline>
    <contour>
      <point x="688" y="195" type="line"/>
      <point x="290" y="674" type="line" smooth="yes"/>
      <point x="280" y="685"/>
      <point x="279" y="686"/>
      <point x="259" y="686" type="curve" smooth="yes"/>
      <point x="38" y="686" type="line"/>
      <point x="38" y="643" type="line"/>
      <point x="38" y="643" type="line"/>
      <point x="144" y="643" type="line"/>
      <point x="144" y="643" type="line"/>
      <point x="144" y="73" type="line" smooth="yes"/>
      <point x="144" y="46"/>
      <point x="143" y="43"/>
      <point x="38" y="43" type="curve"/>
      <point x="38" y="43" type="line"/>
      <point x="38" y="0" type="line"/>
      <point x="61" y="2"/>
      <point x="139" y="2"/>
      <point x="167" y="2" type="curve" smooth="yes"/>
      <point x="195" y="2"/>
      <point x="274" y="2"/>
      <point x="297" y="0" type="curve"/>
      <point x="297" y="43" type="line"/>
      <point x="297" y="43" type="line"/>
      <point x="194" y="43"/>
      <point x="191" y="46"/>
      <point x="191" y="73" type="curve" smooth="yes"/>
      <point x="191" y="609" type="line"/>
      <point x="191" y="609" type="line"/>
      <point x="686" y="13" type="line" smooth="yes"/>
      <point x="697" y="0"/>
      <point x="698" y="0"/>
      <point x="711" y="0" type="curve" smooth="yes"/>
      <point x="735" y="0"/>
      <point x="735" y="6"/>
      <point x="735" y="29" type="curve" smooth="yes"/>
      <point x="735" y="613" type="line" smooth="yes"/>
      <point x="735" y="641"/>
      <point x="742" y="643"/>
      <point x="841" y="643" type="curve"/>
      <point x="841" y="643" type="line"/>
      <point x="841" y="686" type="line"/>
      <point x="818" y="684"/>
      <point x="740" y="684"/>
      <point x="712" y="684" type="curve" smooth="yes"/>
      <point x="684" y="684"/>
      <point x="605" y="684"/>
      <point x="582" y="686" type="curve"/>
      <point x="582" y="643" type="line"/>
      <point x="582" y="643" type="line"/>
      <point x="689" y="643"/>
      <point x="688" y="639"/>
      <point x="688" y="613" type="curve" smooth="yes"/>
    </contour>
  </outline>
</glyph>
<glyph name="O" format="2">
  <advance width="844"/>
  <unicode hex="004F"/>
  <outline>
    <contour>
      <point x="782" y="340" type="curve" smooth="yes"/>
      <point x="782" y="552"/>
      <point x="644" y="698"/>
      <point x="422" y="698" type="curve" smooth="yes"/>
      <point x="199" y="698"/>
      <point x="62" y="551"/>
      <point x="62" y="340" type="curve" smooth="yes"/>
      <point x="62" y="129"/>
      <point x="202" y="-12"/>
      <point x="422" y="-12" type="curve" smooth="yes"/>
      <point x="642" y="-12"/>
      <point x="782" y="129"/>
    </contour>
    <contour>
      <point x="422" y="26" type="curve" smooth="yes"/>
      <point x="244" y="26"/>
      <point x="203" y="206"/>
      <point x="203" y="354" type="curve" smooth="yes"/>
      <point x="203" y="532"/>
      <point x="267" y="662"/>
      <point x="422" y="662" type="curve" smooth="yes"/>
      <point x="577" y="662"/>
      <point x="641.0" y="531.81617"/>
      <point x="641" y="354" type="curve" smooth="yes"/>
      <point x="641" y="206"/>
      <point x="600" y="26"/>
    </contour>
  </outline>
</glyph>
<glyph name="P" format="2">
  <advance width="768"/>
  <unicode hex="0050"/>
  <outline>
    <contour>
      <point x="276" y="305" type="line"/>
      <point x="446" y="305" type="line" smooth="yes"/>
      <point x="613" y="305"/>
      <point x="706" y="390"/>
      <point x="706" y="493" type="curve" smooth="yes"/>
      <point x="706" y="601"/>
      <point x="611" y="686"/>
      <point x="446" y="686" type="curve" smooth="yes"/>
      <point x="38" y="686" type="line"/>
      <point x="38" y="643" type="line"/>
      <point x="144" y="643" type="line"/>
      <point x="144" y="643" type="line"/>
      <point x="144" y="43" type="line"/>
      <point x="144" y="43" type="line"/>
      <point x="38" y="43" type="line"/>
      <point x="38" y="0" type="line"/>
      <point x="67" y="2"/>
      <point x="174" y="2"/>
      <point x="210" y="2" type="curve" smooth="yes"/>
      <point x="246" y="2"/>
      <point x="353" y="2"/>
      <point x="382" y="0" type="curve"/>
      <point x="382" y="43" type="line"/>
      <point x="276" y="43" type="line"/>
      <point x="276" y="43" type="line"/>
    </contour>
    <contour>
      <point x="271" y="343" type="line"/>
      <point x="271" y="643" type="line"/>
      <point x="271" y="643" type="line"/>
      <point x="410" y="643" type="line" smooth="yes"/>
      <point x="565" y="643"/>
      <point x="565" y="561"/>
      <point x="565" y="493" type="curve" smooth="yes"/>
      <point x="565" y="427"/>
      <point x="565" y="343"/>
      <point x="410" y="343" type="curve" smooth="yes"/>
    </contour>
  </outline>
</glyph>
<glyph name="Q" format="2">
  <advance width="844"/>
  <unicode hex="0051"/>
  <outline>
    <contour>
      <point x="574" y="15" type="curve"/>
      <point x="735" y="77"/>
      <point x="782" y="222"/>
      <point x="782" y="340" type="curve" smooth="yes"/>
      <point x="782" y="552"/>
      <point x="644" y="698"/>
      <point x="422" y="698" type="curve" smooth="yes"/>
      <point x="199" y="698"/>
      <point x="62" y="551"/>
      <point x="62" y="340" type="curve" smooth="yes"/>
      <point x="62" y="129"/>
      <point x="202" y="-12"/>
      <point x="422" y="-12" type="curve" smooth="yes"/>
      <point x="431" y="-12"/>
      <point x="472" y="-12"/>
      <point x="519" y="-2" type="curve"/>
      <point x="545" y="-115"/>
      <point x="564" y="-194"/>
      <point x="655" y="-194" type="curve" smooth="yes"/>
      <point x="758" y="-194"/>
      <point x="788" y="-71"/>
      <point x="788" y="-9" type="curve" smooth="yes"/>
      <point x="788" y="0"/>
      <point x="788" y="15"/>
      <point x="773" y="15" type="curve" smooth="yes"/>
      <point x="760" y="15"/>
      <point x="759" y="4"/>
      <point x="758" y="-4" type="curve" smooth="yes"/>
      <point x="752" y="-45"/>
      <point x="697" y="-53"/>
      <point x="669" y="-53" type="curve" smooth="yes"/>
      <point x="647" y="-53"/>
      <point x="615" y="-53"/>
    </contour>
    <contour>
      <point x="332" y="44" type="curve"/>
      <point x="198" y="100"/>
      <point x="198" y="281"/>
      <point x="198" y="340" type="curve" smooth="yes"/>
      <point x="198" y="549"/>
      <point x="268" y="662"/>
      <point x="422" y="662" type="curve" smooth="yes"/>
      <point x="563" y="662"/>
      <point x="646" y="550"/>
      <point x="646" y="340" type="curve" smooth="yes"/>
      <point x="646" y="281"/>
      <point x="646" y="132"/>
      <point x="545" y="63" type="curve"/>
      <point x="504" y="131"/>
      <point x="466" y="154"/>
      <point x="422" y="154" type="curve" smooth="yes"/>
      <point x="371" y="154"/>
      <point x="327" y="119"/>
      <point x="327" y="72" type="curve" smooth="yes"/>
      <point x="327" y="55"/>
      <point x="330" y="49"/>
    </contour>
    <contour>
      <point x="508" y="41" type="curve"/>
      <point x="507" y="41"/>
      <point x="468" y="24"/>
      <point x="422" y="24" type="curve" smooth="yes"/>
      <point x="371" y="24"/>
      <point x="360" y="57"/>
      <point x="360" y="72" type="curve" smooth="yes"/>
      <point x="360" y="101"/>
      <point x="389" y="121"/>
      <point x="423" y="121" type="curve" smooth="yes"/>
      <point x="471" y="121"/>
      <point x="492" y="88"/>
    </contour>
  </outline>
</glyph>
<glyph name="T" format="2">
  <advance width="782"/>
  <unicode hex="0054"/>
  <outline>
    <contour>
      <point x="720" y="677" type="line"/>
      <point x="61" y="677" type="line"/>
      <point x="41" y="440" type="line"/>
      <point x="83" y="440" type="line"/>
      <point x="92" y="549"/>
      <point x="100" y="634"/>
      <point x="244" y="634" type="curve" smooth="yes"/>
      <point x="325" y="634" type="line"/>
      <point x="325" y="634" type="line"/>
      <point x="325" y="43" type="line"/>
      <point x="325" y="43" type="line"/>
      <point x="174" y="43" type="line"/>
      <point x="174" y="0" type="line"/>
      <point x="254" y="2"/>
      <point x="357" y="2"/>
      <point x="391" y="2" type="curve" smooth="yes"/>
      <point x="452" y="2"/>
      <point x="528" y="2"/>
      <point x="608" y="0" type="curve"/>
      <point x="608" y="43" type="line"/>
      <point x="457" y="43" type="line"/>
      <point x="457" y="43" type="line"/>
      <point x="457" y="634" type="line"/>
      <point x="457" y="634" type="line"/>
      <point x="537" y="634" type="line" smooth="yes"/>
      <point x="681" y="634"/>
      <point x="689" y="550"/>
      <point x="698" y="440" type="curve"/>
      <point x="740" y="440" type="line"/>
    </contour>
  </outline>
</glyph>
<glyph name="V" format="2">
  <advance width="849"/>
  <unicode hex="0056"/>
  <outline>
    <contour>
      <point x="424" y="-9" type="curve" smooth="yes"/>
      <point x="440" y="-9"/>
      <point x="450" y="-9"/>
      <point x="459" y="12" type="curve" smooth="yes"/>
      <point x="724" y="620" type="line" smooth="yes"/>
      <point x="730" y="633"/>
      <point x="734" y="643"/>
      <point x="808" y="643" type="curve" smooth="yes"/>
      <point x="825" y="643" type="line"/>
      <point x="825" y="686" type="line"/>
      <point x="794" y="684"/>
      <point x="722" y="684"/>
      <point x="714" y="684" type="curve" smooth="yes"/>
      <point x="686" y="684"/>
      <point x="615" y="684"/>
      <point x="592" y="686" type="curve"/>
      <point x="592" y="643" type="line"/>
      <point x="614" y="643"/>
      <point x="651" y="643"/>
      <point x="679" y="632" type="curve"/>
      <point x="674" y="618" type="line"/>
      <point x="469" y="150" type="line"/>
      <point x="253" y="643" type="line"/>
      <point x="253" y="643" type="line"/>
      <point x="346" y="643" type="line"/>
      <point x="346" y="686" type="line"/>
      <point x="314" y="684"/>
      <point x="218" y="684"/>
      <point x="180" y="684" type="curve" smooth="yes"/>
      <point x="148" y="684"/>
      <point x="49" y="684"/>
      <point x="24" y="686" type="curve"/>
      <point x="24" y="643" type="line"/>
      <point x="114" y="643" type="line"/>
      <point x="114" y="643" type="line"/>
      <point x="390" y="12" type="line" smooth="yes"/>
      <point x="399" y="-8"/>
      <point x="408" y="-9"/>
    </contour>
  </outline>
</glyph>
<glyph name="f" format="2">
  <advance width="343"/>
  <unicode hex="0066"/>
  <outline>
    <contour>
      <point x="113" y="43" type="line"/>
      <point x="113" y="43" type="line"/>
      <point x="44" y="43" type="line"/>
      <point x="44" y="0" type="line"/>
      <point x="67" y="2"/>
      <point x="142" y="2"/>
      <point x="170" y="2" type="curve" smooth="yes"/>
      <point x="199" y="2"/>
      <point x="280" y="2"/>
      <point x="304" y="0" type="curve"/>
      <point x="304" y="43" type="line"/>
      <point x="217" y="43" type="line"/>
      <point x="217" y="43" type="line"/>
      <point x="217" y="400" type="line"/>
      <point x="331" y="401" type="line"/>
      <point x="331" y="444" type="line"/>
      <point x="212" y="444" type="line"/>
      <point x="212" y="547" type="line" smooth="yes"/>
      <point x="212" y="651"/>
      <point x="278" y="667"/>
      <point x="311" y="667" type="curve" smooth="yes"/>
      <point x="322" y="667"/>
      <point x="324" y="666"/>
      <point x="330" y="664" type="curve"/>
      <point x="315" y="654"/>
      <point x="306" y="637"/>
      <point x="306" y="616" type="curve" smooth="yes"/>
      <point x="306" y="576"/>
      <point x="338" y="558"/>
      <point x="364" y="558" type="curve" smooth="yes"/>
      <point x="386" y="558"/>
      <point x="422" y="573"/>
      <point x="422" y="617" type="curve" smooth="yes"/>
      <point x="422" y="658"/>
      <point x="386" y="700"/>
      <point x="315" y="700" type="curve" smooth="yes"/>
      <point x="224" y="700"/>
      <point x="113" y="662"/>
      <point x="113" y="546" type="curve" smooth="yes"/>
      <point x="113" y="444" type="line"/>
      <point x="39" y="444" type="line"/>
      <point x="39" y="401" type="line"/>
      <point x="113" y="401" type="line"/>
    </contour>
  </outline>
</glyph>
<glyph name="l" format="2">
  <advance width="312"/>
  <unicode hex="006C"/>
  <outline>
    <contour>
      <point x="217" y="694" type="line"/>
      <point x="44" y="686" type="line"/>
      <point x="44" y="643" type="line"/>
      <point x="106" y="643"/>
      <point x="113" y="643"/>
      <point x="113" y="604" type="curve" smooth="yes"/>
      <point x="113" y="43" type="line"/>
      <point x="113" y="43" type="line"/>
      <point x="44" y="43" type="line"/>
      <point x="44" y="0" type="line"/>
      <point x="67" y="2"/>
      <point x="138" y="2"/>
      <point x="165" y="2" type="curve" smooth="yes"/>
      <point x="192" y="2"/>
      <point x="263" y="2"/>
      <point x="286" y="0" type="curve"/>
      <point x="286" y="43" type="line"/>
      <point x="217" y="43" type="line"/>
      <point x="217" y="43" type="line"/>
    </contour>
  </outline>
</glyph>
<glyph name="n" format="2">
  <advance width="625"/>
  <unicode hex="006E"/>
  <outline>
    <contour>
      <point x="531" y="306" type="line" smooth="yes"/>
      <point x="531" y="401"/>
      <point x="490" y="450"/>
      <point x="380" y="450" type="curve" smooth="yes"/>
      <point x="308" y="450"/>
      <point x="246" y="415"/>
      <point x="212" y="340" type="curve"/>
      <point x="211" y="340" type="line"/>
      <point x="211" y="450" type="line"/>
      <point x="42" y="442" type="line"/>
      <point x="42" y="399" type="line"/>
      <point x="104" y="399"/>
      <point x="111" y="399"/>
      <point x="111" y="360" type="curve" smooth="yes"/>
      <point x="111" y="43" type="line"/>
      <point x="42" y="43" type="line"/>
      <point x="42" y="0" type="line"/>
      <point x="65" y="2"/>
      <point x="137" y="2"/>
      <point x="165" y="2" type="curve" smooth="yes"/>
      <point x="193" y="2"/>
      <point x="266" y="2"/>
      <point x="289" y="0" type="curve"/>
      <point x="289" y="43" type="line"/>
      <point x="220" y="43" type="line"/>
      <point x="220" y="256" type="line" smooth="yes"/>
      <point x="220" y="364"/>
      <point x="300" y="417"/>
      <point x="364" y="417" type="curve" smooth="yes"/>
      <point x="401" y="417"/>
      <point x="422" y="393"/>
      <point x="422" y="317" type="curve" smooth="yes"/>
      <point x="422" y="43" type="line"/>
      <point x="353" y="43" type="line"/>
      <point x="353" y="0" type="line"/>
      <point x="376" y="2"/>
      <point x="448" y="2"/>
      <point x="476" y="2" type="curve" smooth="yes"/>
      <point x="504" y="2"/>
      <point x="577" y="2"/>
      <point x="600" y="0" type="curve"/>
      <point x="600" y="43" type="line"/>
      <point x="531" y="43" type="line"/>
    </contour>
  </outline>
</glyph>
<glyph name="o" format="2">
  <advance width="562"/>
  <unicode hex="006F"/>
  <outline>
    <contour>
      <point x="530" y="219" type="curve" smooth="yes"/>
      <point x="530" y="354"/>
      <point x="438" y="453"/>
      <point x="281" y="453" type="curve" smooth="yes"/>
      <point x="118" y="453"/>
      <point x="31" y="349"/>
      <point x="31" y="219" type="curve" smooth="yes"/>
      <point x="31" y="88"/>
      <point x="123" y="-6"/>
      <point x="280" y="-6" type="curve" smooth="yes"/>
      <point x="443" y="-6"/>
      <point x="530" y="93"/>
    </contour>
    <contour>
      <point x="281" y="30" type="curve" smooth="yes"/>
      <point x="151" y="30"/>
      <point x="151" y="147"/>
      <point x="151" y="229" type="curve" smooth="yes"/>
      <point x="151" y="276"/>
      <point x="151" y="326"/>
      <point x="170" y="362" type="curve" smooth="yes"/>
      <point x="192" y="402"/>
      <point x="237" y="420"/>
      <point x="280" y="420" type="curve" smooth="yes"/>
      <point x="337" y="420"/>
      <point x="373" y="393"/>
      <point x="390" y="365" type="curve" smooth="yes"/>
      <point x="410" y="329"/>
      <point x="410" y="277"/>
      <point x="410" y="229" type="curve" smooth="yes"/>
      <point x="410" y="146"/>
      <point x="410" y="30"/>
    </contour>
  </outline>
</glyph>
<glyph name="s" format="2">
  <advance width="443"/>
  <unicode hex="0073"/>
  <outline>
    <contour>
      <point x="405" y="139" type="curve" smooth="yes"/>
      <point x="405" y="187"/>
      <point x="379" y="220"/>
      <point x="359" y="238" type="curve" smooth="yes"/>
      <point x="318" y="272"/>
      <point x="284" y="278"/>
      <point x="230" y="288" type="curve" smooth="yes"/>
      <point x="166" y="299"/>
      <point x="106" y="310"/>
      <point x="106" y="358" type="curve" smooth="yes"/>
      <point x="106" y="423"/>
      <point x="195" y="423"/>
      <point x="216" y="423" type="curve" smooth="yes"/>
      <point x="327" y="423"/>
      <point x="333" y="353"/>
      <point x="335" y="328" type="curve" smooth="yes"/>
      <point x="336" y="315"/>
      <point x="344" y="315"/>
      <point x="356" y="315" type="curve" smooth="yes"/>
      <point x="377" y="315"/>
      <point x="377" y="318"/>
      <point x="377" y="341" type="curve" smooth="yes"/>
      <point x="377" y="427" type="line" smooth="yes"/>
      <point x="377" y="446"/>
      <point x="377" y="453"/>
      <point x="362" y="453" type="curve" smooth="yes"/>
      <point x="356" y="453"/>
      <point x="354" y="454"/>
      <point x="339" y="444" type="curve" smooth="yes"/>
      <point x="319" y="431" type="line"/>
      <point x="291" y="447"/>
      <point x="254" y="453"/>
      <point x="218" y="453" type="curve" smooth="yes"/>
      <point x="188" y="453"/>
      <point x="38" y="453"/>
      <point x="38" y="323" type="curve" smooth="yes"/>
      <point x="38.0" y="275.58095000000003"/>
      <point x="63.2899974204" y="245.08988214430002"/>
      <point x="93.88286472490303" y="225.44776225135345" type="curve" smooth="yes"/>
      <point x="131.0317819347" y="201.5963370657"/>
      <point x="175.99991" y="193.74195"/>
      <point x="193" y="191" type="curve" smooth="yes"/>
      <point x="220" y="186"/>
      <point x="253" y="180"/>
      <point x="257" y="180" type="curve"/>
      <point x="297" y="171"/>
      <point x="337" y="146"/>
      <point x="337" y="104" type="curve" smooth="yes"/>
      <point x="337" y="27"/>
      <point x="246" y="27"/>
      <point x="225" y="27" type="curve" smooth="yes"/>
      <point x="174" y="27"/>
      <point x="111" y="43"/>
      <point x="83" y="140" type="curve" smooth="yes"/>
      <point x="77" y="160"/>
      <point x="76" y="161"/>
      <point x="59" y="161" type="curve" smooth="yes"/>
      <point x="38" y="161"/>
      <point x="38" y="158"/>
      <point x="38" y="135" type="curve" smooth="yes"/>
      <point x="38" y="20" type="line" smooth="yes"/>
      <point x="38" y="1"/>
      <point x="38" y="-6"/>
      <point x="53" y="-6" type="curve" smooth="yes"/>
      <point x="60" y="-6"/>
      <point x="62" y="-6"/>
      <point x="82" y="10" type="curve" smooth="yes"/>
      <point x="108" y="29" type="line"/>
      <point x="153" y="-6"/>
      <point x="207" y="-6"/>
      <point x="225" y="-6" type="curve" smooth="yes"/>
      <point x="280" y="-6"/>
      <point x="405" y="6"/>
    </contour>
  </outline>
</glyph>
<glyph name="u" format="2">
  <advance width="625"/>
  <unicode hex="0075"/>
  <outline>
    <contour>
      <point x="353" y="442" type="line"/>
      <point x="353" y="399" type="line"/>
      <point x="415" y="399"/>
      <point x="422" y="399"/>
      <point x="422" y="360" type="curve" smooth="yes"/>
      <point x="422" y="164" type="line" smooth="yes"/>
      <point x="422" y="88"/>
      <point x="377" y="27"/>
      <point x="299" y="27" type="curve" smooth="yes"/>
      <point x="224" y="27"/>
      <point x="220" y="52"/>
      <point x="220" y="107" type="curve" smooth="yes"/>
      <point x="220" y="450" type="line"/>
      <point x="42" y="442" type="line"/>
      <point x="42" y="399" type="line"/>
      <point x="104" y="399"/>
      <point x="111" y="399"/>
      <point x="111" y="360" type="curve" smooth="yes"/>
      <point x="111" y="123" type="line" smooth="yes"/>
      <point x="111" y="23"/>
      <point x="178" y="-6"/>
      <point x="285" y="-6" type="curve" smooth="yes"/>
      <point x="309" y="-6"/>
      <point x="383" y="-6"/>
      <point x="426" y="75" type="curve"/>
      <point x="427" y="75" type="line"/>
      <point x="427" y="-6" type="line"/>
      <point x="600" y="0" type="line"/>
      <point x="600" y="43" type="line"/>
      <point x="538" y="43"/>
      <point x="531" y="43"/>
      <point x="531" y="82" type="curve" smooth="yes"/>
      <point x="531" y="450" type="line"/>
    </contour>
  </outline>
</glyph>
<glyph name="v" format="2">
  <advance width="593"/>
  <unicode hex="0076"/>
  <outline>
    <contour>
      <point x="87" y="401" type="line"/>
      <point x="263" y="19" type="line" smooth="yes"/>
      <point x="272" y="0"/>
      <point x="274" y="-5"/>
      <point x="297" y="-5" type="curve" smooth="yes"/>
      <point x="313" y="-5"/>
      <point x="321" y="-3"/>
      <point x="330" y="17" type="curve" smooth="yes"/>
      <point x="495" y="378" type="line" smooth="yes"/>
      <point x="502" y="393"/>
      <point x="506" y="401"/>
      <point x="569" y="401" type="curve"/>
      <point x="569" y="444" type="line"/>
      <point x="533" y="442"/>
      <point x="531" y="442"/>
      <point x="490" y="442" type="curve" smooth="yes"/>
      <point x="463" y="442"/>
      <point x="461" y="442"/>
      <point x="404" y="444" type="curve"/>
      <point x="404" y="401" type="line"/>
      <point x="431" y="401"/>
      <point x="453" y="396"/>
      <point x="453" y="389" type="curve" smooth="yes"/>
      <point x="453" y="388"/>
      <point x="453" y="387"/>
      <point x="448" y="377" type="curve" smooth="yes"/>
      <point x="331" y="120" type="line"/>
      <point x="202" y="401" type="line"/>
      <point x="202" y="401" type="line"/>
      <point x="257" y="401" type="line"/>
      <point x="257" y="444" type="line"/>
      <point x="234" y="442"/>
      <point x="164" y="442"/>
      <point x="137" y="442" type="curve" smooth="yes"/>
      <point x="108" y="442"/>
      <point x="50" y="442"/>
      <point x="24" y="444" type="curve"/>
      <point x="24" y="401" type="line"/>
    </contour>
  </outline>
</glyph>
<glyph name="x" format="2">
  <advance width="593"/>
  <unicode hex="0078"/>
  <outline>
    <contour>
      <point x="337" y="247" type="line"/>
      <point x="453" y="380" type="line" smooth="yes"/>
      <point x="464" y="393"/>
      <point x="473" y="401"/>
      <point x="556" y="401" type="curve"/>
      <point x="556" y="444" type="line"/>
      <point x="500" y="442"/>
      <point x="498" y="442"/>
      <point x="464" y="442" type="curve" smooth="yes"/>
      <point x="435" y="442"/>
      <point x="392" y="442"/>
      <point x="364" y="444" type="curve"/>
      <point x="364" y="401" type="line"/>
      <point x="383" y="401"/>
      <point x="404" y="396"/>
      <point x="404" y="389" type="curve" smooth="yes"/>
      <point x="404" y="387"/>
      <point x="399" y="380"/>
      <point x="397" y="378" type="curve"/>
      <point x="310" y="280" type="line"/>
      <point x="211" y="401" type="line"/>
      <point x="253" y="401" type="line"/>
      <point x="253" y="444" type="line"/>
      <point x="230" y="442"/>
      <point x="162" y="442"/>
      <point x="135" y="442" type="curve" smooth="yes"/>
      <point x="105" y="442"/>
      <point x="51" y="442"/>
      <point x="23" y="444" type="curve"/>
      <point x="23" y="401" type="line"/>
      <point x="94" y="401" type="line"/>
      <point x="250" y="211" type="line"/>
      <point x="120" y="64" type="line" smooth="yes"/>
      <point x="108" y="50"/>
      <point x="101" y="43"/>
      <point x="18" y="43" type="curve"/>
      <point x="18" y="0" type="line"/>
      <point x="78" y="2"/>
      <point x="80" y="2"/>
      <point x="111" y="2" type="curve" smooth="yes"/>
      <point x="140" y="2"/>
      <point x="182" y="2"/>
      <point x="210" y="0" type="curve"/>
      <point x="210" y="43" type="line"/>
      <point x="191" y="43"/>
      <point x="170" y="48"/>
      <point x="170" y="55" type="curve" smooth="yes"/>
      <point x="170" y="56"/>
      <point x="170" y="57"/>
      <point x="177" y="65" type="curve" smooth="yes"/>
      <point x="277" y="178" type="line"/>
      <point x="388" y="43" type="line"/>
      <point x="346" y="43" type="line"/>
      <point x="346" y="0" type="line"/>
      <point x="370" y="2"/>
      <point x="437" y="2"/>
      <point x="465" y="2" type="curve" smooth="yes"/>
      <point x="495" y="2"/>
      <point x="548" y="2"/>
      <point x="576" y="0" type="curve"/>
      <point x="576" y="43" type="line"/>
      <point x="506" y="43" type="line"/>
    </contour>
  </outline>
</glyph>
<glyph name="AE" format="2">
  <advance width="1018"/>
  <unicode hex="00C6"/>
  <outline>
    <contour>
      <point x="39" y="0" type="line"/>
      <point x="65" y="2"/>
      <point x="125" y="2"/>
      <point x="154" y="2" type="curve" smooth="yes"/>
      <point x="182" y="2"/>
      <point x="255" y="2"/>
      <point x="278" y="0" type="curve"/>
      <point x="278" y="43" type="line"/>
      <point x="268" y="43"/>
      <point x="190" y="43"/>
      <point x="190" y="56" type="curve" smooth="yes"/>
      <point x="190" y="59"/>
      <point x="193" y="65"/>
      <point x="194" y="68" type="curve"/>
      <point x="293" y="308" type="line"/>
      <point x="472" y="308" type="line"/>
      <point x="472" y="43" type="line"/>
      <point x="392" y="43" type="line"/>
      <point x="392" y="0" type="line"/>
      <point x="944" y="0" type="line"/>
      <point x="987" y="270" type="line"/>
      <point x="945" y="270" type="line"/>
      <point x="924" y="126"/>
      <point x="895" y="43"/>
      <point x="727" y="43" type="curve" smooth="yes"/>
      <point x="595" y="43" type="line"/>
      <point x="595" y="43" type="line"/>
      <point x="595" y="308" type="line"/>
      <point x="662" y="308" type="line" smooth="yes"/>
      <point x="759" y="308"/>
      <point x="769" y="266"/>
      <point x="769" y="191" type="curve"/>
      <point x="811" y="191" type="line"/>
      <point x="811" y="468" type="line"/>
      <point x="769" y="468" type="line"/>
      <point x="769" y="393"/>
      <point x="759" y="351"/>
      <point x="662" y="351" type="curve" smooth="yes"/>
      <point x="595" y="351" type="line"/>
      <point x="595" y="643" type="line"/>
      <point x="595" y="643" type="line"/>
      <point x="723" y="643" type="line" smooth="yes"/>
      <point x="879" y="643"/>
      <point x="900" y="568"/>
      <point x="914" y="449" type="curve"/>
      <point x="956" y="449" type="line"/>
      <point x="927" y="686" type="line"/>
      <point x="303" y="686" type="line"/>
      <point x="303" y="643" type="line"/>
      <point x="382" y="643" type="line"/>
      <point x="144" y="68" type="line" smooth="yes"/>
      <point x="133" y="41"/>
      <point x="103" y="43"/>
      <point x="39" y="43" type="curve"/>
    </contour>
    <contour>
      <point x="311" y="351" type="line"/>
      <point x="432" y="643" type="line"/>
      <point x="472" y="643" type="line"/>
      <point x="472" y="351" type="line"/>
    </contour>
  </outline>
</glyph>
<glyph name="Oslash" format="2">
  <advance width="875"/>
  <unicode hex="00D8"/>
  <outline>
    <contour>
      <point x="728" y="725" type="line"/>
      <point x="698" y="745" type="line"/>
      <point x="634" y="654" type="line"/>
      <point x="589" y="676"/>
      <point x="527" y="698"/>
      <point x="437" y="698" type="curve" smooth="yes"/>
      <point x="201" y="698"/>
      <point x="62" y="547"/>
      <point x="62" y="340" type="curve" smooth="yes"/>
      <point x="62" y="234"/>
      <point x="102" y="118"/>
      <point x="208" y="50" type="curve"/>
      <point x="146" y="-38" type="line"/>
      <point x="175" y="-59" type="line"/>
      <point x="239" y="31" type="line"/>
      <point x="279" y="13"/>
      <point x="341" y="-12"/>
      <point x="437" y="-12" type="curve" smooth="yes"/>
      <point x="673" y="-12"/>
      <point x="812" y="135"/>
      <point x="812" y="340" type="curve" smooth="yes"/>
      <point x="812" y="461"/>
      <point x="762" y="574"/>
      <point x="665" y="635" type="curve"/>
    </contour>
    <contour>
      <point x="248" y="106" type="line"/>
      <point x="197" y="170"/>
      <point x="194" y="263"/>
      <point x="194" y="340" type="curve" smooth="yes"/>
      <point x="194" y="412"/>
      <point x="196" y="494"/>
      <point x="237" y="562" type="curve" smooth="yes"/>
      <point x="282" y="638"/>
      <point x="364" y="665"/>
      <point x="437" y="665" type="curve" smooth="yes"/>
      <point x="497" y="665"/>
      <point x="556" y="647"/>
      <point x="601" y="607" type="curve"/>
    </contour>
    <contour>
      <point x="626" y="579" type="line"/>
      <point x="678" y="510"/>
      <point x="680" y="412"/>
      <point x="680" y="340" type="curve" smooth="yes"/>
      <point x="680" y="277"/>
      <point x="680" y="179"/>
      <point x="630" y="110" type="curve" smooth="yes"/>
      <point x="571" y="29"/>
      <point x="477" y="21"/>
      <point x="437" y="21" type="curve" smooth="yes"/>
      <point x="420" y="21"/>
      <point x="336" y="21"/>
      <point x="273" y="79" type="curve"/>
    </contour>
  </outline>
</glyph>
<glyph name="dotlessi" format="2">
  <advance width="312"/>
  <unicode hex="0131"/>
  <outline>
    <contour>
      <point x="217" y="450" type="line"/>
      <point x="47" y="442" type="line"/>
      <point x="47" y="399" type="line"/>
      <point x="106" y="399"/>
      <point x="113" y="399"/>
      <point x="113" y="360" type="curve" smooth="yes"/>
      <point x="113" y="43" type="line"/>
      <point x="113" y="43" type="line"/>
      <point x="44" y="43" type="line"/>
      <point x="44" y="0" type="line"/>
      <point x="67" y="2"/>
      <point x="136" y="2"/>
      <point x="163" y="2" type="curve" smooth="yes"/>
      <point x="191" y="2"/>
      <point x="255" y="2"/>
      <point x="279" y="0" type="curve"/>
      <point x="279" y="43" type="line"/>
      <point x="217" y="43" type="line"/>
    </contour>
  </outline>
</glyph>
<glyph name="OE" format="2">
  <advance width="1143"/>
  <unicode hex="0152"/>
  <outline>
    <contour>
      <point x="456" y="-12" type="curve" smooth="yes"/>
      <point x="459" y="-12"/>
      <point x="492" y="-12"/>
      <point x="537" y="-7" type="curve" smooth="yes"/>
      <point x="546" y="-6"/>
      <point x="603" y="0"/>
      <point x="634" y="0" type="curve" smooth="yes"/>
      <point x="1069" y="0" type="line"/>
      <point x="1112" y="270" type="line"/>
      <point x="1070" y="270" type="line"/>
      <point x="1049" y="124"/>
      <point x="1017" y="43"/>
      <point x="845" y="43" type="curve" smooth="yes"/>
      <point x="695" y="43" type="line"/>
      <point x="695" y="43" type="line"/>
      <point x="695" y="335" type="line"/>
      <point x="789" y="335" type="line" smooth="yes"/>
      <point x="881" y="335"/>
      <point x="910" y="309"/>
      <point x="910" y="218" type="curve"/>
      <point x="952" y="218" type="line"/>
      <point x="952" y="495" type="line"/>
      <point x="910" y="495" type="line"/>
      <point x="910" y="404"/>
      <point x="881" y="378"/>
      <point x="789" y="378" type="curve" smooth="yes"/>
      <point x="695" y="378" type="line"/>
      <point x="695" y="643" type="line"/>
      <point x="695" y="643" type="line"/>
      <point x="843" y="643" type="line" smooth="yes"/>
      <point x="1002" y="643"/>
      <point x="1025" y="568"/>
      <point x="1039" y="449" type="curve"/>
      <point x="1081" y="449" type="line"/>
      <point x="1052" y="686" type="line"/>
      <point x="634" y="686" type="line" smooth="yes"/>
      <point x="608" y="686"/>
      <point x="583" y="688"/>
      <point x="557" y="691" type="curve" smooth="yes"/>
      <point x="524" y="695"/>
      <point x="484" y="698"/>
      <point x="456" y="698" type="curve" smooth="yes"/>
      <point x="220" y="698"/>
      <point x="81" y="547"/>
      <point x="81" y="340" type="curve" smooth="yes"/>
      <point x="81" y="134"/>
      <point x="221" y="-12"/>
    </contour>
    <contour>
      <point x="460" y="21" type="curve" smooth="yes"/>
      <point x="322" y="21"/>
      <point x="217" y="137"/>
      <point x="217" y="355" type="curve" smooth="yes"/>
      <point x="217" y="568"/>
      <point x="330" y="665"/>
      <point x="459" y="665" type="curve" smooth="yes"/>
      <point x="548" y="665"/>
      <point x="581" y="640"/>
      <point x="581" y="491" type="curve" smooth="yes"/>
      <point x="581" y="327" type="line"/>
      <point x="581" y="195" type="line" smooth="yes"/>
      <point x="581" y="47"/>
      <point x="549" y="21"/>
    </contour>
  </outline>
</glyph>
<glyph name="caron" format="2">
  <advance width="562"/>
  <unicode hex="02C7"/>
  <outline>
    <contour>
      <point x="280" y="595" type="line"/>
      <point x="151" y="650" type="line"/>
      <point x="131" y="614" type="line"/>
      <point x="280" y="519" type="line"/>
      <point x="430" y="613" type="line"/>
      <point x="410" y="650" type="line"/>
    </contour>
  </outline>
</glyph>
<glyph name="hungarumlaut" format="2">
  <advance width="562"/>
  <unicode hex="02DD"/>
  <outline>
    <contour>
      <point x="138" y="538" type="line"/>
      <point x="174" y="516" type="line"/>
      <point x="271" y="611" type="line" smooth="yes"/>
      <point x="279" y="619"/>
      <point x="292" y="631"/>
      <point x="292" y="652" type="curve" smooth="yes"/>
      <point x="292" y="681"/>
      <point x="261" y="709"/>
      <point x="229" y="709" type="curve" smooth="yes"/>
      <point x="193" y="709"/>
      <point x="183" y="679"/>
      <point x="178" y="663" type="curve" smooth="yes"/>
    </contour>
    <contour>
      <point x="325" y="538" type="line"/>
      <point x="361" y="516" type="line"/>
      <point x="458" y="611" type="line" smooth="yes"/>
      <point x="466" y="619"/>
      <point x="479" y="631"/>
      <point x="479" y="652" type="curve" smooth="yes"/>
      <point x="479" y="681"/>
      <point x="448" y="709"/>
      <point x="416" y="709" type="curve" smooth="yes"/>
      <point x="380" y="709"/>
      <point x="370" y="679"/>
      <point x="365" y="663" type="curve" smooth="yes"/>
    </contour>
  </outline>
</glyph>
<glyph name="quotedblright" format="2">
  <advance width="581"/>
  <unicode hex="201D"/>
  <outline>
    <contour>
      <point x="165" y="573" type="curve"/>
      <point x="163" y="495"/>
      <point x="130" y="433"/>
      <point x="74" y="388" type="curve" smooth="yes"/>
      <point x="65" y="380"/>
      <point x="64" y="379"/>
      <point x="64" y="375" type="curve" smooth="yes"/>
      <point x="64" y="366"/>
      <point x="76" y="356"/>
      <point x="82" y="356" type="curve" smooth="yes"/>
      <point x="96" y="356"/>
      <point x="198" y="440"/>
      <point x="198" y="573" type="curve" smooth="yes"/>
      <point x="198" y="639"/>
      <point x="165" y="694"/>
      <point x="109" y="694" type="curve" smooth="yes"/>
      <point x="65" y="694"/>
      <point x="38" y="661"/>
      <point x="38" y="622" type="curve" smooth="yes"/>
      <point x="38" y="586"/>
      <point x="63" y="550"/>
      <point x="110" y="550" type="curve" smooth="yes"/>
      <point x="139" y="550"/>
      <point x="157" y="565"/>
    </contour>
    <contour>
      <point x="403" y="573" type="curve"/>
      <point x="401" y="495"/>
      <point x="368" y="433"/>
      <point x="312" y="388" type="curve" smooth="yes"/>
      <point x="303" y="380"/>
      <point x="302" y="379"/>
      <point x="302" y="375" type="curve" smooth="yes"/>
      <point x="302" y="366"/>
      <point x="314" y="356"/>
      <point x="320" y="356" type="curve" smooth="yes"/>
      <point x="334" y="356"/>
      <point x="436" y="440"/>
      <point x="436" y="573" type="curve" smooth="yes"/>
      <point x="436" y="639"/>
      <point x="403" y="694"/>
      <point x="347" y="694" type="curve" smooth="yes"/>
      <point x="303" y="694"/>
      <point x="276" y="661"/>
      <point x="276" y="622" type="curve" smooth="yes"/>
      <point x="276" y="586"/>
      <point x="301" y="550"/>
      <point x="348" y="550" type="curve" smooth="yes"/>
      <point x="377" y="550"/>
      <point x="395" y="565"/>
    </contour>
  </outline>
</glyph>
